<svg xmlns="http://www.w3.org/2000/svg" xml:space="preserve"
	width="845px"
	height="97px"
	version="1.0"
	style="shape-rendering: geometricPrecision; text-rendering: geometricPrecision; image-rendering: optimizeQuality; fill-rule: evenodd; clip-rule: evenodd"
	viewBox="0 0 845.001 96.536"
	xmlns:xlink="http://www.w3.org/1999/xlink">
	<defs>
		<style type="text/css">
			@import url("https://fonts.googleapis.com/css2?family=Poppins:wght@500;600;700");
			
			.fil0 {
				fill: none;
			}
			
			.fil4 {
				fill: black;
			}
			
			.fil3 {
				fill: #062326;
			}
			
			.fil1 {
				fill: #52E4F7;
			}
			
			.fil2 {
				fill: #7FB3BA;
			}
			
			.fnt0 {
				font-family: "Poppins SemiBold";
				font-weight: 600;
				font-size: 18px;
			}
			
			.fnt1 {
				font-family: "Poppins";
				font-weight: bold;
				font-size: 36px;
			}
		</style>
	</defs>
	<g>
		<rect class="fil0" width="845" height="96.5"/>
		<rect class="fil1" x="31.5" y="0.5" width="4" height="96"/>
		<text class="fil2 fnt0" x="53.5" y="46.8">Welcome to my</text>
		<text class="fil3 fnt1" x="51.25" y="86.6">userpage!</text>
		<path class="fil4" d="M803.501 18.567c0.306,-0.338 0.814,-0.635 1.269,-0.635 1.058,0 3.455,1.591 3.948,1.959 0.493,0.368 0.331,1.363 0.071,1.637l-25.6 26.88 25.811 26.838 -28.149 -24.383 -27.05 28.401c-1.658,1.741 -3.66,1.682 -3.806,-0.423l-4.019 -57.736c-0.324,-4.659 5.685,-5.907 8.248,-3.173l25.379 27.071 23.898 -26.436zm-26.061 29.007l-23.415 -21.309c-1.845,-1.545 -2.566,-0.874 -2.327,1.692l1.892 45.174c0.038,0.9 0.685,0.227 1.269,-0.423l22.581 -25.134 0 0z"/>
	</g>
</svg>
